<svg xmlns="http://www.w3.org/2000/svg" xmlns:xlink="http://www.w3.org/1999/xlink" id="Layer_1" data-name="Layer 1" viewBox="321.02 152.13 200 250"><defs><style>.cls-1{fill:#f09357;}.cls-2{fill:url(#radial-gradient);}.cls-3{fill:#2b282a;}.cls-4{fill:#f4f4f4;}.cls-5{font-size:36px;fill:#cd5127;font-family:Chalkboard-Bold, Chalkboard;font-weight:700;}.cls-6{letter-spacing:0.02em;}.cls-7{letter-spacing:0.03em;}.cls-8{letter-spacing:0.04em;}</style><radialGradient id="radial-gradient" cx="421.02" cy="307.06" r="60.12" gradientUnits="userSpaceOnUse"><stop offset="0" stop-color="#c85a39"/><stop offset="0.31" stop-color="#d5673f"/><stop offset="1" stop-color="#ef814a"/></radialGradient></defs><rect class="cls-1" x="321.02" y="152.13" width="200" height="250" rx="54.4"/><rect class="cls-2" x="359.71" y="248.14" width="122.61" height="117.84" rx="12"/><rect class="cls-3" x="390.36" y="332.22" width="59.67" height="25.42" rx="12.71"/><path class="cls-4" d="M398.42,345s.53-5.19-5.38-8a12.19,12.19,0,0,1,8.08-4.77l36.2-.16s5.88-.8,10.64,5.78c0,0-5.21,1.74-5.87,7.12h0a111.88,111.88,0,0,0-43.67,0"/><path class="cls-4" d="M393.27,353s4.39-.94,5-7.14c0,0,24.84-5.12,43.66.29a8.93,8.93,0,0,0,4.48,7.61,12.12,12.12,0,0,1-7.93,3.86l-35.45.05S396.72,357.65,393.27,353Z"/><path class="cls-4" d="M398.09,310.68a20.38,20.38,0,0,1,16,7.68,17.13,17.13,0,1,0-27.92-3.81A20.34,20.34,0,0,1,398.09,310.68Z"/><path class="cls-3" d="M399.13,310.81a20.59,20.59,0,0,1,12,4.62,7.27,7.27,0,0,0,1.23-3.66,7.46,7.46,0,0,0-14.88-1C398,310.78,398.57,310.78,399.13,310.81Z"/><path class="cls-4" d="M428.52,318.92a20.43,20.43,0,0,1,27.32-4.25,17.13,17.13,0,1,0-27.32,4.25Z"/><path class="cls-3" d="M444.5,311.23H445a7.45,7.45,0,1,0-13.49,4.62A20.39,20.39,0,0,1,444.5,311.23Z"/><path class="cls-3" d="M391.86,277.48c1.6,9.84,12.95,13,21.53,12.29,2.38-.22,2.4-4,0-3.75-7,.62-16.58-1.33-17.91-9.54-.38-2.37-4-1.37-3.62,1Z"/><path class="cls-3" d="M445.28,276.48c-1.33,8.21-10.93,10.16-17.91,9.54-2.4-.22-2.39,3.53,0,3.75,8.58.76,19.93-2.45,21.52-12.29.38-2.36-3.23-3.38-3.61-1Z"/><text class="cls-5" transform="translate(371.73 220.72)">a<tspan class="cls-6" x="20.09" y="0">n</tspan><tspan class="cls-7" x="39.82" y="0">g</tspan><tspan class="cls-8" x="60.62" y="0">r</tspan><tspan x="78.48" y="0">y</tspan></text></svg>