<svg xmlns="http://www.w3.org/2000/svg" xmlns:xlink="http://www.w3.org/1999/xlink" id="Layer_1" data-name="Layer 1" viewBox="320.95 162.13 200 250"><defs><style>.cls-1{fill:#9eadd9;}.cls-2{fill:url(#radial-gradient);}.cls-3{fill:#fdfeff;}.cls-4{fill:#282827;}.cls-5{fill:#bbddf4;}.cls-6{font-size:36px;fill:#4c72b8;font-family:Chalkboard-Bold, Chalkboard;font-weight:700;}.cls-7{letter-spacing:-0.01em;}.cls-8{letter-spacing:0em;}.cls-9{letter-spacing:0.03em;}.cls-10{letter-spacing:0.03em;}</style><radialGradient id="radial-gradient" cx="420.95" cy="317.06" r="55.94" gradientUnits="userSpaceOnUse"><stop offset="0" stop-color="#99a5d4"/><stop offset="0.51" stop-color="#798dc7"/><stop offset="1" stop-color="#5f7abc"/></radialGradient></defs><rect class="cls-1" x="320.95" y="162.13" width="200" height="250" rx="54.4"/><rect class="cls-2" x="372.45" y="254.56" width="97" height="125" rx="48.5"/><path class="cls-3" d="M440.2,303.93a23.27,23.27,0,0,0-15.69,1.39,12.71,12.71,0,0,1,0-6.25c1.84-7.1,9.42-11.28,16.94-9.34s12.13,9.27,10.29,16.37a12.57,12.57,0,0,1-1.41,3.34A23.47,23.47,0,0,0,440.2,303.93Z"/><path class="cls-4" d="M439.5,303.74a3.08,3.08,0,0,0,.44-1.23,3,3,0,0,0-.11-1.28.95.95,0,0,0,0-1.88.93.93,0,0,0-.91.43,3.11,3.11,0,0,0-5.05,3.27c-.44,0-.88,0-1.31,0a6.24,6.24,0,1,1,12.31-.38,6.42,6.42,0,0,1-.94,2.54A23.79,23.79,0,0,0,439.5,303.74Z"/><path class="cls-4" d="M392.73,288.41A18.65,18.65,0,0,0,405.11,286a12.83,12.83,0,0,0,3.95-4.08c.42-.69-.66-1.31-1.08-.63a13.09,13.09,0,0,1-9.27,5.78,20.91,20.91,0,0,1-4,.28l-1.26-.06-.36,0c-.78-.11-1.12,1.1-.33,1.21Z"/><path class="cls-4" d="M436.1,281.87a12.69,12.69,0,0,0,3.8,3.19,16.53,16.53,0,0,0,11,1.79c.79-.13.45-1.33-.33-1.21a15.14,15.14,0,0,1-10.13-1.73,12.73,12.73,0,0,1-2.46-1.86,7.47,7.47,0,0,1-.62-.64c-.06-.07-.34-.42-.15-.17-.48-.63-1.56,0-1.08.63Z"/><path class="cls-4" d="M396.46,330.43a40.29,40.29,0,0,1,13-9.3A32.33,32.33,0,0,1,423.8,318a23.78,23.78,0,0,1,7.09,1.51,50.68,50.68,0,0,1,16.25,9.36c.6.52,1.49-.36.88-.89a52.78,52.78,0,0,0-15-9,32.08,32.08,0,0,0-7.12-2.06c-9.05-1.25-18.47,2.9-25.48,8.33a35.25,35.25,0,0,0-4.81,4.33c-.53.6.35,1.48.88.88Z"/><path class="cls-4" d="M392.27,328.43a5.4,5.4,0,0,0,2.57,4.66,5.79,5.79,0,0,0,2.74.65.63.63,0,0,0,0-1.25q-.31,0-.63,0h-.11c.13,0,0,0-.07,0l-.3-.05a4.34,4.34,0,0,1-.48-.14l-.24-.09c.13.05,0,0,0,0l-.15-.07c-.13-.07-.26-.14-.38-.22l-.19-.12c-.12-.08.08.06,0,0l-.12-.09-.27-.26-.14-.15s-.19-.25-.08-.1a5.4,5.4,0,0,1-.4-.65,2.53,2.53,0,0,1-.16-.33c.06.13,0,.05,0,0l-.06-.17a6.2,6.2,0,0,1-.27-1.13c0-.1,0,.18,0,.08a.13.13,0,0,0,0-.06s0-.08,0-.11,0-.12,0-.17a.76.76,0,0,1,0-.15.63.63,0,0,0-1.25,0Z"/><path class="cls-4" d="M450.08,328.43a3.42,3.42,0,0,1,0,.44c0,.14,0,0,0,0s0,.07,0,.11a2.74,2.74,0,0,1,0,.28,5.66,5.66,0,0,1-.15.59c0,.1-.07.2-.1.3l-.06.15c.08-.2,0,0,0,.08a3.77,3.77,0,0,1-.37.65l-.12.16-.05.07a3.83,3.83,0,0,1-.28.29l-.15.15-.08.06-.37.25-.25.13-.11,0c-.14.07.07,0-.05,0l-.54.18-.29.06-.14,0s-.18,0-.07,0c-.25,0-.49,0-.75,0a.63.63,0,0,0,0,1.25,5.12,5.12,0,0,0,4.06-1.75,5.81,5.81,0,0,0,1.18-2.81,4.78,4.78,0,0,0,.08-.75.63.63,0,0,0-1.25,0Z"/><path class="cls-3" d="M403.65,303.53a23.32,23.32,0,0,1,15.29,3.78,12.58,12.58,0,0,0,.95-6.17c-.72-7.3-7.56-12.6-15.29-11.84s-13.41,7.3-12.69,14.6a12.39,12.39,0,0,0,.88,3.51A23.54,23.54,0,0,1,403.65,303.53Z"/><path class="cls-4" d="M404.37,303.44a3,3,0,0,1-.25-1.27,3.34,3.34,0,0,1,.31-1.26.94.94,0,0,1-.7-.92,1,1,0,0,1,1-.93.94.94,0,0,1,.84.56,3.16,3.16,0,0,1,1.78-.5,3.13,3.13,0,0,1,3,3.21,3.06,3.06,0,0,1-.33,1.31c.43.06.86.13,1.29.22a6.24,6.24,0,1,0-12.1-2.26,6.19,6.19,0,0,0,.53,2.65A24.25,24.25,0,0,1,404.37,303.44Z"/><path class="cls-5" d="M391.05,310.52a2,2,0,0,0,.55,3s1.61.95,2.67-1.08a7.34,7.34,0,0,0,.74-4.33A10,10,0,0,0,391.05,310.52Z"/><path class="cls-5" d="M444.43,313.71a2.43,2.43,0,0,0,3.41,1.27s2-1.07.54-3.41c0,0-.82-1.78-4-3.44A12.08,12.08,0,0,0,444.43,313.71Z"/><path class="cls-5" d="M450.55,316a1.58,1.58,0,0,0,2.23.77,1.46,1.46,0,0,0,.3-2.22,5.75,5.75,0,0,0-2.65-2.17A7.7,7.7,0,0,0,450.55,316Z"/><path class="cls-5" d="M389.05,319.62a2.43,2.43,0,0,0,1.55,3.3s2.16.62,2.77-2.06c0,0,.66-1.84-.45-5.26A12.06,12.06,0,0,0,389.05,319.62Z"/><path class="cls-5" d="M417.81,306.59s-11.07-7.69-25,.82c0,0-1.46-.86.11-2.42a5.45,5.45,0,0,1,3.12-1.56s17.19-1.56,18.75,0C414.77,303.43,417.73,305.06,417.81,306.59Z"/><path class="cls-5" d="M424.89,305.22s11.82-6.47,24.79,3.48c0,0,1.54-.7.16-2.42a5.48,5.48,0,0,0-2.95-1.89s-16.92-3.38-18.64-2C428.25,302.4,425.14,303.7,424.89,305.22Z"/><text class="cls-6" transform="translate(357.94 230.72)">an<tspan class="cls-7" x="39.26" y="0">x</tspan><tspan class="cls-8" x="59.63" y="0">i</tspan><tspan class="cls-9" x="69.41" y="0">o</tspan><tspan class="cls-10" x="88.87" y="0">u</tspan><tspan x="109.71" y="0">s</tspan></text></svg>