<svg version="1.1" xmlns="http://www.w3.org/2000/svg" viewBox="0 0 511.582807437258 287.13372727490434" width="1534.748422311774" height="861.401181824713">
  <!-- svg-source:excalidraw -->
  
  <defs>
    <style class="style-fonts">
      @font-face {
        font-family: "Virgil";
        src: url("https://excalidraw.com/Virgil.woff2");
      }
      @font-face {
        font-family: "Cascadia";
        src: url("https://excalidraw.com/Cascadia.woff2");
      }
    </style>
  </defs>
  <rect x="0" y="0" width="511.582807437258" height="287.13372727490434" fill="#ffffff"></rect><g stroke-opacity="0.6" fill-opacity="0.6" stroke-linecap="round" transform="translate(10 10) rotate(0 245.791403718629 133.56686363745217)"><path d="M0 0 C0 0, 0 0, 0 0 M0 0 C0 0, 0 0, 0 0 M-0.75 5.84 C1.5 5.51, 2.1 2.87, 4.69 -0.22 M-0.35 6.28 C1.35 4.49, 3.37 2.63, 5.19 0.68 M-0.15 10.8 C2.62 6.18, 9.32 3.41, 10.61 0.25 M0.37 12.12 C2.93 9.51, 4.66 7.81, 10.27 -0.79 M-0.38 19.58 C5.77 11.05, 8.7 6.2, 16.97 2.02 M-1.02 19.35 C5.1 12.05, 11.3 5.74, 15.17 -0.65 M2.11 26.06 C6.55 19.07, 8.47 14.5, 20.36 1.57 M-0.25 24.64 C6.32 16.86, 12.62 9.67, 22.25 0.71 M-0.27 31.68 C7.78 20.31, 16.13 13.92, 26.88 -1.18 M0.73 31.13 C9.4 19.92, 17.15 11.1, 26.83 0.22 M-0.87 38.7 C10.53 25.34, 17.86 15.57, 32.15 1.7 M-0.13 37.47 C8.57 26.64, 17.36 17.24, 32.05 -0.88 M-1.65 43.97 C6.93 31.19, 16.92 23.34, 37.22 2 M0.01 41.68 C12.93 27.61, 27.87 10.8, 37.49 -0.62 M-1.98 46.96 C16.34 31.82, 28.82 16.59, 41.06 1.25 M0.8 48.03 C10.41 37.74, 19.14 26.45, 43.28 -0.72 M1.19 56.37 C10.78 43.84, 20.08 32.09, 48.45 -1.51 M0.22 55.33 C18.24 33.43, 36.68 13.08, 46.8 0.02 M1.2 61.9 C12.25 47.9, 24.6 32.59, 54.42 0.08 M-0.78 61.59 C13.75 44.75, 29.32 27.96, 52.79 -0.68 M1.53 68.85 C17.89 44.15, 36.84 23.48, 56.22 -0.47 M-0.76 68.3 C20.03 45.83, 39.24 22.18, 58.05 -0.02 M-1.04 74.14 C20.23 51.07, 36.33 32.73, 65.73 -0.7 M0.12 73.3 C19.77 50.7, 37.65 29.34, 63.57 -0.5 M0.84 80.41 C16.79 58.11, 39.91 33.13, 69.42 -1.38 M-0.94 78.64 C19.87 55.56, 40.92 33.03, 69.18 0.68 M-1.18 84.56 C19.1 61.46, 39.73 41.47, 72.76 -0.7 M1.11 85.89 C15.51 66.13, 32.71 46.74, 73.75 -0.83 M-1.17 91.57 C16.09 70.26, 35.03 50.76, 80.17 1.56 M0.84 91.76 C28.32 59.12, 58.25 25.41, 79.77 0.15 M-1.16 99.07 C18.35 76.87, 34.5 53.17, 83.47 -2.22 M-1.18 97.46 C31.97 59.94, 64.89 24.59, 85.6 -0.19 M2.09 103.39 C21.16 77.68, 44.46 54.37, 89.79 0.41 M0.55 104.46 C28.16 70.14, 56.83 36.81, 90.04 0.04 M0.3 111.62 C25.18 85.57, 46.79 59.41, 94.04 -0.3 M0.44 109.46 C29.44 75.53, 58.96 43.51, 96.53 -0.02 M1.44 116.2 C33.55 76.62, 66.64 42.53, 98.83 -0.46 M1.27 114.62 C38.37 69.68, 76.57 25.12, 99.83 0.62 M1.7 122.69 C32.44 84.96, 64.08 45.93, 106.88 -0.71 M0.87 122.23 C33.35 81.93, 69.27 41.82, 106.1 0.38 M1.25 128.38 C23.76 99.32, 50.92 71.95, 113.03 1.58 M-0.4 129 C28.68 93.18, 58.25 59.33, 111.64 -0.26 M-0.56 134.3 C30.33 100.48, 57.93 67.19, 115.96 -1.15 M0.29 134.93 C27.78 103.64, 54.67 72.96, 116.34 -0.45 M0.07 139.33 C36.88 95.62, 79.45 52.21, 121.4 1.44 M-0.78 141.19 C36.2 100.01, 71.31 59.78, 121.62 -0.12 M1.13 144.72 C51.27 92.05, 96.91 36.63, 127.42 -0.34 M0.54 145.36 C48.59 91.25, 96 36.79, 127.39 -0.11 M0.65 152.01 C50.55 93.45, 105.09 30.93, 133.97 0.29 M0 153.08 C41 107.84, 79.47 63.36, 132.54 -0.78 M-0.98 159.24 C33.39 122.27, 65.66 82.6, 137.66 0.55 M-0.55 159.57 C49.97 101.96, 98.8 44.68, 136.69 1.08 M-0.95 163.86 C39.42 119.78, 78.78 73.86, 144.45 -0.26 M-0.33 165.14 C47.13 107.9, 94.85 52.61, 142.87 0.15 M-1.57 169.58 C40 124.47, 81.63 77.74, 149.74 0.87 M0.26 170.42 C50.8 112.42, 102.33 53.84, 148.04 0.49 M0.44 177.33 C54.14 112.31, 110.22 50.08, 155.29 -0.56 M-0.11 175.97 C57.79 111.58, 116.58 44.04, 153.57 -0.58 M-0.4 182.83 C55.03 118.73, 108.34 57.55, 159.7 -0.39 M-0.51 183.63 C59.13 116.1, 116.97 48.06, 158.93 0.18 M-0.91 188.14 C48.37 132.49, 98.91 78.44, 164.7 -0.59 M-0.9 189.35 C61 117.16, 123.53 46, 165.18 -0.43 M-0.44 195.05 C42.83 148.35, 80.07 103.79, 169.14 0.07 M0.81 194.32 C38.04 149.92, 75.01 107.32, 168.93 0.4 M-0.07 200.89 C56.38 136.95, 113 72.9, 175.25 -1.71 M-0.51 201.73 C42.68 152.52, 83.04 105.39, 175.52 -0.66 M-0.27 207.64 C61.99 134.68, 120.24 65.88, 179.6 1.49 M0.15 207.29 C61.57 135.37, 124.14 63.41, 180.08 0.67 M-0.47 211.93 C59.97 148.65, 116.75 82.64, 185.54 1.23 M0.54 212.96 C43.01 163.34, 84.92 114.27, 185.45 -0.36 M0.12 219.81 C70.69 137.82, 138.84 58.74, 191.1 1.13 M-0.94 220.38 C69.82 140.23, 139.02 61.24, 191.27 0.67 M0.07 224.3 C64.01 150.75, 125.38 78.45, 195.24 -0.36 M-0.51 225.26 C74.32 141.56, 147.7 56.26, 196.22 -0.52 M0.61 233.24 C44.67 180.45, 90.98 130.8, 200.91 -0.98 M-0.23 232.19 C65.63 154.25, 133.67 76.53, 200.94 -0.56 M0.73 237.24 C55.56 172.96, 113.73 109.87, 206.34 0.49 M0.46 237.1 C60.2 168.62, 119.06 100.21, 207.2 -0.13 M-1.24 243.29 C74.39 157.65, 150.94 70.96, 211.01 -1.14 M-0.61 243.99 C63.88 170.94, 127.87 95.93, 211.99 0.47 M-1.05 249.02 C51.23 192.27, 102.04 133.14, 218.66 0.4 M-0.38 250.71 C60.41 180.15, 122.44 110.12, 216.96 0.04 M-0.77 254.89 C49.84 199.59, 97.86 145.55, 223.26 0.67 M0.44 255.98 C82.33 163.22, 162.87 70.21, 222.33 -0.6 M-0.2 263.39 C82.15 167.88, 163.34 74.26, 228.89 -0.69 M0.23 262.63 C71.16 181.79, 140.66 101.57, 227.95 -0.27 M0.34 267.3 C84.51 171.79, 168.35 75.32, 232.93 0.13 M-0.32 267.4 C83.55 172.75, 168.44 74.55, 232.83 0.33 M5.55 267.01 C86.28 176.39, 166.87 82.52, 239.4 -0.68 M5.5 267.75 C54.23 211.72, 102.36 155.76, 238.23 0.49 M11.96 266.7 C97.8 171.26, 182.72 70.6, 243.54 0.55 M11.48 267.78 C62.12 210.17, 113.96 150.06, 243.72 0.02 M17.44 266.81 C105.2 166.94, 192.3 65.25, 248.65 0.35 M16.77 267.85 C74.2 202.45, 130.52 137.85, 249.03 0.66 M22.47 268.82 C99.83 177.76, 176.55 89.35, 254.72 0.73 M21.15 267.33 C73.39 208.35, 124.66 149.7, 254.05 0.55 M27.07 266.5 C116.14 166.38, 203.09 67.22, 259.08 0.95 M26.99 267.26 C114.79 164.97, 204.48 62.99, 259.99 0.62 M31.53 268.52 C112.66 173.72, 193.9 80.14, 266.28 -0.95 M32.65 267.8 C99.47 190.64, 166.85 112.45, 264.89 -0.43 M38.5 266.61 C119.31 172.66, 202.31 77.86, 270.72 -0.9 M38.32 267.04 C84.92 211.74, 133.07 156.09, 269.89 0.35 M43.42 268.49 C102.02 199.24, 161.64 132.88, 276.85 -0.16 M43.28 267.46 C123.3 176.46, 202.11 85.45, 276.1 -0.07 M49.5 268.52 C108.46 196.01, 171.17 125.89, 281.8 -0.62 M47.86 267.02 C96.89 210.27, 146.13 153.99, 280.51 -0.38 M52.93 267.78 C114.1 197.22, 176.52 126.15, 285.24 -0.73 M53.31 268.18 C128.53 182.71, 202.76 95.99, 285.73 0.04 M57.96 267.96 C137.53 173.59, 218.2 82.87, 290.06 1.43 M58.59 267.75 C127.22 186.83, 195.46 107.47, 290.81 -0.15 M64.63 268.19 C139.66 179.34, 219.02 88.41, 296.81 -0.56 M64.08 267.12 C145.82 173.01, 229.13 76.6, 297.05 -0.3 M70.96 266.67 C156.83 163.87, 245.09 62.64, 301.75 1.18 M69.71 267.29 C133.85 194.18, 197.11 120.48, 301.44 -0.34 M73.59 267.84 C128.22 208.47, 180.59 145.91, 306.77 -0.53 M74.77 267.56 C127.57 204.96, 181.43 143.65, 307.61 -0.62 M80.23 268.49 C132.96 206.48, 185.4 145.06, 312.3 -0.09 M79.89 266.97 C167.74 165.59, 254.02 65.41, 312.84 0.61 M84.64 267.59 C136.13 211.74, 187.55 153.34, 319.48 -0.73 M85.6 268.08 C150.89 190.68, 217.48 114.22, 317.67 -0.35 M91.84 267.78 C163.75 186.28, 235.5 101.22, 323.1 0.37 M90.44 266.9 C168.38 180.05, 245.01 91.38, 323.27 0.17 M95.72 267.21 C187.09 161.47, 280.68 57.23, 329.16 0.85 M95.93 266.98 C171.87 180.84, 246.94 93.83, 329.47 -0.78 M101.03 266.93 C174.5 186.89, 246.61 101.96, 335.01 0.32 M101.47 267.4 C167.82 192.04, 234.23 115.89, 333.36 0.05 M106.81 266.65 C189.87 172.45, 273.28 76.09, 339.16 -0.64 M106.17 268.09 C179.46 184, 252.03 100.51, 338.93 -0.57 M111.57 266.86 C176.55 194.22, 240.59 120.57, 344.55 -0.99 M111.31 267.86 C180.96 186.03, 252.21 104.75, 344.11 0.43 M116.11 267.31 C194.72 180.71, 271.26 92.49, 349.74 0.51 M117.14 267.29 C180.77 196.53, 242.97 124.31, 349.75 0.51 M122.86 267.76 C193.8 182.76, 268.01 97.81, 355.44 1.01 M122.15 268.07 C180.47 199.67, 238.43 133.61, 355.05 0.58 M129.04 268.23 C185.08 201.4, 240.79 135.54, 359.43 0.86 M128.15 267.29 C217.45 161.48, 308.59 57.36, 359.99 0.53 M133.77 267.28 C207.75 182.57, 280.05 97.98, 364.48 -0.51 M133.12 268.43 C202.84 186.9, 273.16 105.31, 366.08 -0.47 M138.93 267.32 C196.38 203.56, 249.71 138.92, 370.05 1.34 M138.91 267.96 C214.23 179.96, 288.25 93.57, 370.32 0.5 M143.36 267.77 C190.62 214.25, 239.22 158.07, 375.68 0.67 M144.05 267.5 C203.56 198.34, 264.77 129.01, 376.89 -0.71 M148.91 267.82 C238.3 166.39, 326.12 63.37, 380.38 0.38 M148.91 266.98 C212.65 196.28, 274.67 124.16, 380.87 0.76 M154.65 267.26 C223.53 189.9, 292.17 111, 386.1 -0.63 M153.61 267.74 C203.17 212.11, 252.34 155.84, 387.58 0.29 M160.31 266.72 C238.09 178.72, 316.5 86.87, 391.91 1.09 M159.34 266.94 C231.67 186.01, 301.55 105.23, 392.51 -0.19 M165.66 268.46 C247.14 173.33, 328.53 79.16, 397.47 0.88 M165.01 267.18 C227.11 194.54, 292.36 119.97, 398.02 -0.45 M171.39 266.34 C243.24 185.46, 315.23 102.93, 402.39 -0.32 M169.85 266.97 C230.51 199.43, 288.27 133.03, 402.33 0.03 M175.86 267.19 C248.17 184.97, 320.37 102.16, 407.14 -0.9 M175.16 267.8 C239.88 194.23, 305.01 119.42, 408.5 0.22 M181.19 267.9 C248.12 193.27, 313.38 115.82, 412.33 -0.36 M180.53 267.22 C230.53 210.81, 279.24 154.58, 413.33 0.72 M184.84 266.52 C270.31 168.1, 356.24 71, 419.67 0.97 M185.56 267.14 C244.1 201.23, 302.57 133.69, 419.04 -0.57 M190.83 267.64 C280.4 163.64, 370.14 61.26, 423.61 0.12 M191.23 266.95 C245.84 206.23, 298.31 145.9, 423.41 -0.1 M196.2 267.76 C258.44 194.92, 322.44 121.81, 430.15 -0.54 M196.49 267.95 C276.36 176.02, 355.49 85.79, 430.13 -0.78 M202.2 268.41 C281.11 176.62, 358.77 85.72, 435.72 -0.2 M202.2 267.74 C251.2 208.22, 302.56 149.2, 435.11 0.21 M208.52 266.64 C269.58 195.32, 331.26 123.43, 440.84 0.59 M207.7 267.26 C277.66 188.97, 346.41 109.39, 440.69 -0.59 M213.48 268.88 C305.05 161.61, 399.49 54.43, 444.42 0.77 M212.82 268.46 C270.78 200.81, 330.54 131.78, 444.58 0.48 M216.7 267.42 C293.93 177.98, 371.32 88.59, 449.68 -1.02 M217.74 267.32 C309.22 163.44, 400.75 57.11, 451.38 -0.39 M223.01 266.91 C271.51 211.5, 320.07 155.62, 455.88 -0.49 M222.27 268.04 C286.63 192.96, 350.7 117.45, 455.17 0.25 M228.58 268.73 C300.07 183.69, 376 97.95, 461.77 -0.29 M228.46 267.24 C301.7 186.26, 373.26 103.22, 461.32 -0.21 M234.38 267.91 C316.5 173.94, 399.73 78.31, 467.45 1.04 M233.96 268.06 C321.52 166.48, 408.53 66, 466.45 0.44 M238.06 267.5 C297.38 201.98, 353.07 136.48, 472.1 -0.18 M239.22 267.47 C292.96 207.27, 345.71 145.99, 471.95 0.46 M244.91 267.78 C292.86 210.09, 343.33 152.65, 476.58 -0.36 M244.65 267.81 C315.74 183.74, 388.87 100.16, 477.44 0.07 M249.42 267.86 C339.69 161.81, 430.09 56.74, 482.25 -0.62 M250.13 267.92 C330.39 174.77, 412 80.42, 482.61 0.22 M253.98 267.7 C321.46 191.44, 389 112.28, 487.32 0.68 M254.74 268.27 C348.88 159.91, 442.35 53.18, 487.25 -0.43 M260.68 267.09 C309.42 211.27, 356.26 156.4, 492.63 -0.35 M260.1 267.25 C350.64 162.05, 442.1 56.86, 492.36 -0.31 M264.31 267.75 C334.39 187.68, 404.52 108.74, 492.79 5.56 M265.01 267.57 C315.79 211.94, 364.96 154.76, 492.39 6.82 M269.94 267.12 C360.9 167.31, 447.74 65.97, 492.63 14.16 M271.35 267.42 C331.98 196.68, 392.19 128.44, 492.11 13.28 M275.61 268.24 C333.54 199.06, 393.55 131.13, 492.16 18.58 M276.06 268.14 C342.6 191.2, 410.15 114.39, 492.83 18.95 M282.09 268.25 C332.11 209.21, 381.78 151.86, 492.83 26.28 M282.36 267.92 C326.97 214.49, 373.18 161.42, 492.27 24.78 M285.68 268.29 C339.62 211.92, 387.78 152.17, 492.69 32.86 M286.24 268.24 C343.3 203.58, 398.6 139.61, 491.83 32.06 M291.36 267.41 C342.82 204.74, 397.03 144.75, 493.44 36.27 M292.15 267.54 C347.98 202.75, 404.79 136.29, 491.8 36.7 M297.25 267.09 C369.11 182.73, 443.82 97.32, 492.33 42.14 M297.79 267.76 C349.4 207.36, 401.45 146.54, 491.46 43.96 M301.77 268.03 C376.07 184.9, 447.27 105.16, 493.4 48.32 M302.74 267.96 C343.5 220.41, 384.76 173.5, 492.2 49.26 M308.31 268.54 C353 216.42, 395.36 163.6, 492.83 56.46 M307.63 267.83 C367.45 197.2, 427.43 129.15, 492.85 55.49 M314.99 267.27 C375.05 197.19, 438.53 126.8, 493.31 61.99 M314.22 267.31 C382.47 187.85, 450.28 109.18, 492.74 62.4 M319.08 267.8 C376.03 203.93, 431.14 138.29, 492.36 68.52 M318.33 267.07 C357.23 223.07, 395.65 178.22, 491.8 68.43 M324.4 266.91 C371.49 210.75, 420.11 156.54, 493.72 73 M322.94 267.51 C369.11 217.23, 412.25 167.91, 491.91 73.35 M330.82 267.78 C381.85 208.8, 432.86 148.77, 492.32 79.15 M328.42 266.82 C395.88 193.9, 460.69 120.03, 492.64 79.13 M334.66 269.31 C366.14 229.8, 401.56 192.64, 492.42 85.84 M334.38 267.65 C386.54 207.85, 438.92 146.54, 492.22 85.26 M340.91 268.63 C373.18 226.32, 411.96 183.6, 492.12 91.18 M339.28 267.48 C381.77 220.37, 421.97 173.16, 491.29 92.79 M343.99 267 C384.6 221.42, 424.25 175.44, 492.15 96.42 M344.18 267.54 C376.07 233.2, 407.26 197.96, 492.64 98.83 M350.93 269.03 C393.81 215.83, 438.7 166.42, 493.34 104.84 M349.6 267.37 C392.85 221.46, 432.91 174.83, 491.44 105.15 M354.85 267.72 C392.23 225.67, 430.33 178.45, 491.8 110.97 M356.2 267.07 C395.08 222.58, 434.28 177.73, 491.72 110.03 M362.01 267.73 C400.6 225.36, 436.73 183.44, 494 116.77 M361.12 266.96 C401.96 221.43, 440.57 176.26, 491.63 115.74 M364.6 266.69 C394.51 233.25, 424.61 199.89, 490.39 124.92 M365.82 268.09 C400.64 226.71, 438.64 185.33, 491.3 123.95 M372.89 269.3 C407.68 223.27, 446.17 180.28, 492.87 129.13 M370.78 268.34 C416.03 215.19, 461.18 161.51, 491.98 127.93 M378.64 269.68 C418.63 217.59, 462.03 169.29, 492.53 134.03 M376.48 267.99 C417.31 221.95, 458.49 175.19, 491.68 134.75 M380.99 267.1 C407.78 237.52, 437.27 205.4, 494.44 141.64 M382.74 266.48 C423.81 220.24, 463.88 173.07, 492.91 139.99 M388.43 267.78 C421.84 227.94, 454.68 190.89, 493.73 147.29 M388.27 267.92 C418.97 230.29, 452.21 192, 491.32 146.29 M393.31 268.68 C433.59 222.95, 471.15 175.84, 491.39 154.11 M393.94 267.74 C414.3 244.7, 433.9 222.14, 491.13 153.64 M397.71 267.39 C431.88 232.09, 461.3 191.84, 493.48 157.12 M398.32 268.24 C418.71 243.68, 439.67 220.08, 493.12 158.29 M403.95 265.83 C435.22 232.89, 463.25 197.13, 492.35 165.32 M402.95 267.18 C433.73 233.77, 463.32 199.27, 491.54 164.53 M408.45 268.18 C432 238.75, 456.87 210.77, 492.46 170.21 M407.9 267.41 C429.58 244.68, 449.29 220.71, 492.62 172.09 M412.24 268.61 C438.35 240.33, 461.94 215.44, 492.24 175.62 M415 267.43 C435.98 241.57, 459.6 214.36, 492.21 177.68 M418.84 269.14 C441.19 246.52, 458.98 221.42, 493.95 182.29 M419.43 267 C445.45 237.35, 472.77 205.34, 492.31 184.38 M424.73 267.39 C453.1 235.52, 478.49 205.88, 492.84 189.89 M424.93 267.74 C450.85 237.07, 476.9 206.62, 491.99 189.46 M429.28 266.49 C451.15 244.79, 472.68 218.5, 492.4 197.13 M429.44 266.72 C446.22 249.58, 463.01 230.56, 491.33 195.22 M437.18 266.79 C456.53 241.03, 476.85 218.28, 492.13 200.28 M436.25 267 C454.61 244.12, 476.28 220.17, 492.9 201.35 M440.39 267.76 C451.76 249.97, 469.33 234.77, 491.5 209.02 M439.64 267.34 C452.64 254.49, 463.57 239.71, 492.46 207.51 M443.91 268.49 C460.53 251.13, 470.35 235.77, 493.69 212.96 M445.43 267.42 C459.82 250.43, 475.79 232.27, 492.42 213.7 M451.01 265.77 C465.79 254.49, 476.83 238.16, 492.83 221.77 M451.87 267.78 C462.06 253.59, 473.93 240.87, 491.81 219.04 M454.44 266.18 C470.91 252.33, 484.69 234.44, 491.25 227.16 M455.58 268.59 C465.88 258.03, 473.95 246.3, 493.16 225.7 M460.2 268.6 C471.2 257.32, 478.23 251.48, 493.19 231.49 M461.08 268.04 C469.24 259.03, 476.25 250.34, 493.09 232.17 M467.52 268.08 C474.67 258.64, 479 249.96, 490.82 237.6 M467.44 266.94 C474.83 258.4, 482.55 249.7, 491.88 238.92 M473.25 265.61 C478.61 261.4, 479.5 256.76, 493.94 245.32 M472.4 268.27 C475.69 262.8, 480.79 258.93, 492.03 245.67 M475.81 267.97 C481.21 260.54, 485.63 255.17, 491.27 249.58 M477.08 267.79 C481.42 262.76, 484.76 258.61, 493.15 251.28 M483.45 268.88 C487.69 264.2, 489.14 259.01, 493.18 256.57 M482.36 267.62 C486.12 264.15, 489.48 259.35, 492.02 256.7 M487.69 267.85 C489.09 265.87, 490.71 264.96, 492.96 262.24 M488.06 267.56 C488.98 266.43, 490.1 265.42, 492.26 262.65" stroke="#a5d8ff" stroke-width="0.5" fill="none"></path><path d="M-0.45 0.67 C174.27 2.62, 349.03 1.85, 492.07 -0.26 M-0.4 0.07 C138.46 0.89, 277.36 0.98, 491.83 -0.2 M490.77 1.55 C492.88 67.69, 492.37 133.5, 491.46 265.64 M491.3 0.39 C491.97 62.57, 491.85 123.1, 491.21 267.15 M491.58 266.97 C365.47 266.47, 239.26 267.02, 0.23 267.37 M491.86 267.25 C362.67 268.37, 233.74 267.98, 0.29 266.79 M1.21 265.76 C-0.67 195.85, -0.62 127.14, -1.3 0.57 M0.48 267.05 C0.89 200.25, 2.29 132.24, 0.06 0.2" stroke="#1e1e1e" stroke-width="1" fill="none"></path></g></svg>