<svg xmlns="http://www.w3.org/2000/svg" xmlns:xlink="http://www.w3.org/1999/xlink" id="Layer_1" data-name="Layer 1" viewBox="300.94 170.13 200 250"><defs><style>.cls-1{fill:#f8e088;}.cls-2{fill:url(#radial-gradient);}.cls-3{fill:#fff;}.cls-4{fill:#2b282a;}.cls-5{fill:#282827;}.cls-6{font-size:36px;fill:#f1b938;font-family:Chalkboard-Bold, Chalkboard;font-weight:700;}.cls-7{letter-spacing:0.02em;}.cls-8{letter-spacing:0.02em;}.cls-9{letter-spacing:0.04em;}.cls-10{letter-spacing:0em;}.cls-11{letter-spacing:-0.01em;}</style><style class="darkreader darkreader--sync" media="screen"/><radialGradient id="radial-gradient" cx="400.94" cy="325.06" fx="416.7820300766094" fy="387.03666034661455" r="63.97" gradientUnits="userSpaceOnUse"><stop offset="0" stop-color="#f9d969" data-darkreader-inline-stopcolor="" style="--darkreader-inline-stopcolor: #685204;"/><stop offset="0.67" stop-color="#f8d16f" data-darkreader-inline-stopcolor="" style="--darkreader-inline-stopcolor: #654a05;"/></radialGradient></defs><rect class="cls-1" x="300.94" y="170.13" width="200" height="250" rx="54.4"/><circle class="cls-2" cx="400.94" cy="325.06" r="63.97"/><circle class="cls-3" cx="432.38" cy="305.76" r="18.2"/><circle class="cls-4" cx="438.44" cy="303" r="7.72"/><circle class="cls-3" cx="388.26" cy="304.65" r="18.2"/><circle class="cls-4" cx="394.33" cy="301.9" r="7.72"/><path class="cls-5" d="M361.46,337a72.13,72.13,0,0,0,18.65,11.32c14.13,6.17,29.89,8.22,44.94,4.36,11.5-3,21.85-9.1,30.82-16.78,1.23-1.05-.55-2.81-1.76-1.77a76,76,0,0,1-26.87,15.33,62.41,62.41,0,0,1-24.45,2.42A76.07,76.07,0,0,1,369,339.43c-1.49-1-3-2-4.37-3.1l-.49-.38-.48-.4-.41-.35c-1.21-1.05-3,.71-1.77,1.77Z"/><path class="cls-5" d="M361.22,338.76a.64.64,0,0,1-.08-.14.8.8,0,0,1-.08-.16.36.36,0,0,1,0-.09c-.11-.22.08.22.05.13a10.39,10.39,0,0,1-.38-1.35c.09.42,0,.05,0-.13a3.68,3.68,0,0,1,0-.47,1.48,1.48,0,0,1,0-.21s0-.08,0-.11c0-.19,0,.17,0,.17a4,4,0,0,0,.1-.5,1.87,1.87,0,0,0,.07-.22,1.17,1.17,0,0,1,.05-.11c.06-.22-.13.23-.05.1s.16-.34.26-.5l.15-.22c.15-.23-.19.21,0-.05a4.16,4.16,0,0,1,.46-.48l.27-.24c.12-.11-.2.13-.06.05s.14-.11.22-.15a7.17,7.17,0,0,1,.75-.46l.46-.22.2-.09c-.25.11.09,0,.11,0a12.15,12.15,0,0,1,1.16-.39,1.25,1.25,0,0,0-.66-2.41c-2.39.69-4.75,1.95-5.7,4.38a5.9,5.9,0,0,0,.08,4.16,6.64,6.64,0,0,0,.46,1,1.26,1.26,0,0,0,1.71.44,1.28,1.28,0,0,0,.45-1.71Z"/><path class="cls-5" d="M459.72,335.91a6.18,6.18,0,0,0-.93-2.34,5.69,5.69,0,0,0-4.61-2.64,10.65,10.65,0,0,0-4.6,1.06,1.26,1.26,0,0,0-.45,1.71,1.28,1.28,0,0,0,1.71.45l.07,0,.24-.09.47-.17.93-.27.41-.08.2,0h.08l.25,0h.4a1.77,1.77,0,0,1,.65,0s-.32-.06-.1,0l.14,0,.32.08.27.08c.05,0,.32.16.13,0l.09.05.28.15.2.14.1.07c.12.08-.05.05-.11-.09.05.11.27.24.36.33s.19.21.28.31-.19-.26,0,0l.15.22a6.52,6.52,0,0,1,.38.68,1.22,1.22,0,0,0,.07.17c-.2-.37-.09-.23-.05-.11l.12.33a4.09,4.09,0,0,1,.17.69,1.25,1.25,0,1,0,2.41-.66Z"/><text class="cls-6" transform="translate(343.07 238.72)"><tspan class="cls-7">n</tspan><tspan class="cls-8" x="20.01" y="0">o</tspan><tspan class="cls-9" x="38.9" y="0">r</tspan><tspan class="cls-10" x="57" y="0">m</tspan><tspan class="cls-11" x="84.33" y="0">a</tspan><tspan x="104.14" y="0">l</tspan></text></svg>